<?xml version="1.0" standalone="no"?>
<!DOCTYPE svg PUBLIC "-//W3C//DTD SVG 20010904//EN"
 "http://www.w3.org/TR/2001/REC-SVG-20010904/DTD/svg10.dtd">
<svg version="1.0" xmlns="http://www.w3.org/2000/svg"
 width="1080.000000pt" height="1080.000000pt" viewBox="0 0 1080.000000 1080.000000"
 preserveAspectRatio="xMidYMid meet">
<metadata>
Created by potrace 1.14, written by Peter Selinger 2001-2017
</metadata>
<g transform="translate(0.000000,1080.000000) scale(0.100000,-0.100000)"
fill="#000000" stroke="none">
<path d="M2339 7147 c-1 -1 -2 -858 -3 -1904 l-1 -1903 376 0 377 0 1 785 c0
432 2 789 5 793 3 4 123 7 268 6 207 -2 278 -6 333 -19 165 -39 261 -121 340
-290 27 -59 173 -492 380 -1132 l46 -143 385 0 c211 0 384 4 384 8 0 7 -148
454 -173 522 -3 8 -42 128 -88 265 -113 344 -174 513 -221 614 -93 196 -188
302 -348 391 -34 19 -45 31 -45 50 0 22 11 29 93 62 202 82 356 196 453 335
77 112 127 240 144 375 19 137 7 339 -26 474 -57 229 -228 449 -439 561 -83
45 -277 111 -345 118 -13 1 -87 13 -140 21 -34 6 -1753 16 -1756 11z m1652
-624 c164 -49 272 -161 310 -320 17 -72 19 -243 3 -318 -38 -182 -158 -302
-344 -345 -67 -16 -857 -23 -866 -8 -5 7 -7 526 -4 951 l0 69 418 -5 c380 -3
423 -6 483 -24z"/>
<path d="M5899 7147 c-1 -1 -2 -858 -3 -1904 l-1 -1903 376 0 377 0 -1 790
c-1 519 1 791 8 793 6 2 127 3 270 1 210 -1 273 -5 325 -19 36 -9 70 -18 75
-19 6 -1 31 -12 56 -25 56 -28 115 -82 157 -144 64 -92 74 -119 427 -1204 l57
-173 384 0 c366 0 384 1 384 18 0 10 -3 22 -7 26 -4 3 -8 12 -9 19 -3 17 -366
1095 -399 1187 -66 182 -158 341 -244 425 -46 44 -125 102 -189 136 -20 12
-29 24 -28 40 1 19 16 29 91 59 50 20 106 46 126 58 20 11 47 26 60 34 30 16
178 131 202 157 78 82 157 227 188 346 27 110 33 160 32 305 -3 357 -150 644
-419 816 -92 59 -283 130 -394 148 -14 2 -41 7 -60 10 -97 17 -208 19 -992 22
-467 2 -849 2 -849 1z m1656 -624 c172 -57 261 -152 306 -323 18 -69 19 -242
2 -319 -42 -183 -143 -285 -333 -337 -56 -15 -120 -18 -472 -20 -301 -1 -408
1 -408 10 -1 19 -1 980 0 999 0 18 18 18 423 14 389 -4 427 -5 482 -24z"/>
</g>
</svg>
